<?xml version="1.0" encoding="UTF-8"?>
<svg version="1.1" xmlns="http://www.w3.org/2000/svg" width="183" height="76">
<path d="M0 0 C60.39 0 120.78 0 183 0 C183 25.08 183 50.16 183 76 C122.61 76 62.22 76 0 76 C0 50.92 0 25.84 0 0 Z " fill="#EEEEEC" transform="translate(0,0)"/>
<path d="M0 0 C1.65 0 3.3 0 5 0 C6.80078125 2.1875 6.80078125 2.1875 8.3125 5 C8.82425781 5.928125 9.33601563 6.85625 9.86328125 7.8125 C10.23839844 8.534375 10.61351563 9.25625 11 10 C11.33 6.7 11.66 3.4 12 0 C13.32 0 14.64 0 16 0 C16 5.94 16 11.88 16 18 C14.35 18 12.7 18 11 18 C9.19921875 15.8125 9.19921875 15.8125 7.6875 13 C7.17574219 12.071875 6.66398437 11.14375 6.13671875 10.1875 C5.76160156 9.465625 5.38648437 8.74375 5 8 C4.67 11.3 4.34 14.6 4 18 C2.68 18 1.36 18 0 18 C0 12.06 0 6.12 0 0 Z " fill="#24A854" transform="translate(88,32)"/>
<path d="M0 0 C0 0.99 0 1.98 0 3 C-1.98 3.33 -3.96 3.66 -6 4 C-6 4.66 -6 5.32 -6 6 C-2.535 7.98 -2.535 7.98 1 10 C1.25 12.3125 1.25 12.3125 1 15 C-0.5625 16.8125 -0.5625 16.8125 -3 18 C-6.75 18.1875 -6.75 18.1875 -10 18 C-10.33 16.68 -10.66 15.36 -11 14 C-8.69 14 -6.38 14 -4 14 C-4 13.34 -4 12.68 -4 12 C-4.969375 11.62875 -5.93875 11.2575 -6.9375 10.875 C-10 9 -10 9 -11.0625 6 C-11 3 -11 3 -10.0625 1.125 C-6.75632849 -0.67836628 -3.72581793 -0.18323695 0 0 Z " fill="#141416" transform="translate(37,32)"/>
<path d="M0 0 C5.625 -0.25 5.625 -0.25 9 2 C9.29296875 4.6015625 9.29296875 4.6015625 9.1875 7.625 C9.16042969 8.62789062 9.13335937 9.63078125 9.10546875 10.6640625 C9.07066406 11.43492188 9.03585938 12.20578125 9 13 C7.35425434 13.02688151 5.70838587 13.04634123 4.0625 13.0625 C3.14597656 13.07410156 2.22945313 13.08570313 1.28515625 13.09765625 C-1 13 -1 13 -2 12 C-2.04080783 10.00041636 -2.04254356 7.99954746 -2 6 C1.465 5.505 1.465 5.505 5 5 C5 4.34 5 3.68 5 3 C3.02 3.33 1.04 3.66 -1 4 C-0.67 2.68 -0.34 1.36 0 0 Z " fill="#3BB066" transform="translate(109,37)"/>
<path d="M0 0 C5.625 -0.25 5.625 -0.25 9 2 C9.29296875 4.6015625 9.29296875 4.6015625 9.1875 7.625 C9.16042969 8.62789062 9.13335937 9.63078125 9.10546875 10.6640625 C9.07066406 11.43492188 9.03585938 12.20578125 9 13 C7.35425434 13.02688151 5.70838587 13.04634123 4.0625 13.0625 C3.14597656 13.07410156 2.22945312 13.08570313 1.28515625 13.09765625 C-1 13 -1 13 -2 12 C-2.04080783 10.00041636 -2.04254356 7.99954746 -2 6 C1.465 5.505 1.465 5.505 5 5 C5 4.34 5 3.68 5 3 C3.02 3.33 1.04 3.66 -1 4 C-0.67 2.68 -0.34 1.36 0 0 Z " fill="#202021" transform="translate(42,37)"/>
<path d="M0 0 C1.875 1.25 1.875 1.25 3 3 C3 4.32 3 5.64 3 7 C0.36 7 -2.28 7 -5 7 C-4.67 7.66 -4.34 8.32 -4 9 C-2.02 9 -0.04 9 2 9 C1.67 10.32 1.34 11.64 1 13 C-5.34507042 13.35915493 -5.34507042 13.35915493 -7.9375 11.9375 C-9.6140629 8.88023824 -9.36528977 6.4093712 -9 3 C-6.84332735 -0.71426957 -4.0099826 -0.50124783 0 0 Z " fill="#30AC5D" transform="translate(164,37)"/>
<path d="M0 0 C1.32 0 2.64 0 4 0 C4.33 2.97 4.66 5.94 5 9 C5.66 9 6.32 9 7 9 C7.33 6.03 7.66 3.06 8 0 C9.32 0 10.64 0 12 0 C12 4.29 12 8.58 12 13 C10.39125 13.061875 8.7825 13.12375 7.125 13.1875 C5.76761719 13.23970703 5.76761719 13.23970703 4.3828125 13.29296875 C3.20332031 13.14794922 3.20332031 13.14794922 2 13 C-0.20914 9.68629 -0.22481553 8.6553979 -0.125 4.8125 C-0.10695312 3.91144531 -0.08890625 3.01039062 -0.0703125 2.08203125 C-0.04710937 1.39496094 -0.02390625 0.70789062 0 0 Z " fill="#27A957" transform="translate(130,37)"/>
<path d="M0 0 C1 1 1 1 1.0625 3.5625 C1.041875 4.366875 1.02125 5.17125 1 6 C-1.64 6 -4.28 6 -7 6 C-6.67 6.66 -6.34 7.32 -6 8 C-2.97065509 8.65772428 -2.97065509 8.65772428 0 9 C-0.33 9.99 -0.66 10.98 -1 12 C-6.625 12.25 -6.625 12.25 -10 10 C-10.643026 3.24822695 -10.643026 3.24822695 -8.9375 -0.0625 C-5.82886019 -1.56668055 -3.27444462 -0.72765436 0 0 Z " fill="#202022" transform="translate(77,38)"/>
<path d="M0 0 C1.32 0 2.64 0 4 0 C4.66 2.31 5.32 4.62 6 7 C6.66 4.69 7.32 2.38 8 0 C9.32 0 10.64 0 12 0 C11.71517632 1.41805831 11.42181856 2.83440379 11.125 4.25 C10.96257813 5.03890625 10.80015625 5.8278125 10.6328125 6.640625 C10.00849925 8.96831144 9.15161458 10.89031952 8 13 C6.68 13 5.36 13 4 13 C1.97944157 8.60748167 0.59104765 4.84659077 0 0 Z " fill="#1A1A1B" transform="translate(53,37)"/>
<path d="M0 0 C0 1.32 0 2.64 0 4 C0.99 4 1.98 4 3 4 C3 4.99 3 5.98 3 7 C2.01 7 1.02 7 0 7 C0 9.31 0 11.62 0 14 C0.99 14 1.98 14 3 14 C3 14.99 3 15.98 3 17 C0.69 16.67 -1.62 16.34 -4 16 C-4 13.03 -4 10.06 -4 7 C-4.66 7 -5.32 7 -6 7 C-6 6.01 -6 5.02 -6 4 C-5.34 4 -4.68 4 -4 4 C-4 3.01 -4 2.02 -4 1 C-2 0 -2 0 0 0 Z " fill="#22A753" transform="translate(126,33)"/>
<path d="M0 0 C0 0.66 0 1.32 0 2 C-0.66 2 -1.32 2 -2 2 C-2 7.94 -2 13.88 -2 20 C-1.34 20 -0.68 20 0 20 C0 20.66 0 21.32 0 22 C-3.875 21.125 -3.875 21.125 -5 20 C-6.11760031 13.41857597 -6.07324332 7.54678424 -5 1 C-3 0 -3 0 0 0 Z " fill="#1C1C1E" transform="translate(24,32)"/>
<path d="M0 0 C2.64 0 5.28 0 8 0 C8 0.99 8 1.98 8 3 C7.01 3.33 6.02 3.66 5 4 C4.67 6.97 4.34 9.94 4 13 C2.68 13 1.36 13 0 13 C0 8.71 0 4.42 0 0 Z " fill="#27A957" transform="translate(146,37)"/>
<path d="M0 0 C0.99 0.33 1.98 0.66 3 1 C2.01 1.495 2.01 1.495 1 2 C1 2.99 1 3.98 1 5 C1.99 5 2.98 5 4 5 C3.67 5.99 3.34 6.98 3 8 C1.35 7.67 -0.3 7.34 -2 7 C-2 5.02 -2 3.04 -2 1 C-1.34 0.67 -0.68 0.34 0 0 Z " fill="#1EA650" transform="translate(109,42)"/>
<path d="M0 0 C1.32 0 2.64 0 4 0 C3.75 2.875 3.75 2.875 3 6 C0.9375 7.375 0.9375 7.375 -1 8 C-0.67 5.36 -0.34 2.72 0 0 Z " fill="#202021" transform="translate(61,37)"/>
<path d="M0 0 C2.625 0.9375 2.625 0.9375 5 2 C4.67 2.99 4.34 3.98 4 5 C1.03 4.505 1.03 4.505 -2 4 C-2 3.01 -2 2.02 -2 1 C-1.34 0.67 -0.68 0.34 0 0 Z " fill="#727273" transform="translate(42,42)"/>
<path d="M0 0 C2.475 0.99 2.475 0.99 5 2 C4.67 2.99 4.34 3.98 4 5 C2.35 4.67 0.7 4.34 -1 4 C-0.67 2.68 -0.34 1.36 0 0 Z " fill="#121214" transform="translate(41,45)"/>
<path d="M0 0 C0 0.66 0 1.32 0 2 C-0.66 2 -1.32 2 -2 2 C-2 4.31 -2 6.62 -2 9 C-2.33 9 -2.66 9 -3 9 C-3.144375 8.236875 -3.28875 7.47375 -3.4375 6.6875 C-3.9632594 3.91827092 -3.9632594 3.91827092 -5 1 C-3 0 -3 0 0 0 Z " fill="#2F2F31" transform="translate(24,32)"/>
</svg>
